<?xml version="1.0" standalone="no"?>
<!DOCTYPE svg PUBLIC "-//W3C//DTD SVG 20010904//EN"
 "http://www.w3.org/TR/2001/REC-SVG-20010904/DTD/svg10.dtd">
<svg version="1.0" xmlns="http://www.w3.org/2000/svg"
 width="445.000000pt" height="492.000000pt" viewBox="0 0 445.000000 492.000000"
 preserveAspectRatio="xMidYMid meet">

<g transform="translate(0.000000,492.000000) scale(0.100000,-0.100000)"
fill="#121A91" stroke="none">
<path fill="#121A91" d="M2002 4900 c-413 -52 -761 -291 -946 -649 -311 -603 -72 -1332 539
-1638 99 -50 244 -97 350 -114 103 -16 287 -16 390 0 247 39 488 163 671 345
615 616 399 1651 -413 1976 -173 69 -416 102 -591 80z"/>
<path fill="#121A91" d="M1925 2319 c-221 -18 -468 -69 -659 -136 -122 -43 -344 -147 -446
-210 -396 -245 -670 -591 -766 -971 -34 -135 -50 -302 -35 -374 65 -312 651
-532 1621 -609 200 -16 800 -16 1000 0 579 46 1000 136 1285 275 138 67 233
140 284 217 55 83 66 144 52 286 -45 447 -296 836 -726 1125 -443 299 -1033
444 -1610 397z"/>
</g>
</svg>
